solid OpenSCAD_Model
  facet normal -0 0 -1
    outer loop
      vertex 4.11417 2.79763 3
      vertex -2.79763 -4.11417 3
      vertex 2.79763 4.11417 3
    endloop
  endfacet
  facet normal 0 0 -1
    outer loop
      vertex -2.79763 -4.11417 3
      vertex -4.11417 -2.79763 3
      vertex 2.79763 4.11417 3
    endloop
  endfacet
  facet normal 0 0 1
    outer loop
      vertex 2.79763 4.11417 4
      vertex -2.79763 -4.11417 4
      vertex 4.11417 2.79763 4
    endloop
  endfacet
  facet normal 0 0 1
    outer loop
      vertex 2.79763 4.11417 4
      vertex -4.11417 -2.79763 4
      vertex -2.79763 -4.11417 4
    endloop
  endfacet
  facet normal 0.707107 -0.707107 0
    outer loop
      vertex 4.11417 2.79763 3
      vertex -2.79763 -4.11417 4
      vertex -2.79763 -4.11417 3
    endloop
  endfacet
  facet normal 0.707107 -0.707107 0
    outer loop
      vertex 4.11417 2.79763 3
      vertex 4.11417 2.79763 4
      vertex -2.79763 -4.11417 4
    endloop
  endfacet
  facet normal 0.707107 0.707107 0
    outer loop
      vertex 2.79763 4.11417 3
      vertex 4.11417 2.79763 4
      vertex 4.11417 2.79763 3
    endloop
  endfacet
  facet normal 0.707107 0.707107 -0
    outer loop
      vertex 2.79763 4.11417 3
      vertex 2.79763 4.11417 4
      vertex 4.11417 2.79763 4
    endloop
  endfacet
  facet normal -0.707107 0.707107 0
    outer loop
      vertex -4.11417 -2.79763 3
      vertex 2.79763 4.11417 4
      vertex 2.79763 4.11417 3
    endloop
  endfacet
  facet normal -0.707107 0.707107 0
    outer loop
      vertex -4.11417 -2.79763 3
      vertex -4.11417 -2.79763 4
      vertex 2.79763 4.11417 4
    endloop
  endfacet
  facet normal -0.707107 -0.707107 0
    outer loop
      vertex -2.79763 -4.11417 3
      vertex -4.11417 -2.79763 4
      vertex -4.11417 -2.79763 3
    endloop
  endfacet
  facet normal -0.707107 -0.707107 0
    outer loop
      vertex -2.79763 -4.11417 3
      vertex -2.79763 -4.11417 4
      vertex -4.11417 -2.79763 4
    endloop
  endfacet
endsolid OpenSCAD_Model
