solid OpenSCAD_Model
  facet normal 0 0 -1
    outer loop
      vertex 4.65465 -0.930923 3
      vertex 0.930923 0.930923 3
      vertex 4.65465 0.930923 3
    endloop
  endfacet
  facet normal 0 0 -1
    outer loop
      vertex 4.65465 -0.930923 3
      vertex 0.930923 -0.930923 3
      vertex 0.930923 0.930923 3
    endloop
  endfacet
  facet normal -0 -0 -1
    outer loop
      vertex 0.930923 0.930923 3
      vertex 0.930923 -0.930923 3
      vertex -0.930923 0.930923 3
    endloop
  endfacet
  facet normal 0 0 -1
    outer loop
      vertex 0.930923 0.930923 3
      vertex -0.930923 0.930923 3
      vertex -0.930923 4.65465 3
    endloop
  endfacet
  facet normal -0 -0 -1
    outer loop
      vertex 0.930923 4.65465 3
      vertex 0.930923 0.930923 3
      vertex -0.930923 4.65465 3
    endloop
  endfacet
  facet normal 0 0 -1
    outer loop
      vertex -0.930923 -0.930923 3
      vertex -4.65465 -0.930923 3
      vertex -4.65465 0.930923 3
    endloop
  endfacet
  facet normal -0 -0 -1
    outer loop
      vertex 0.930923 -0.930923 3
      vertex 0.930923 -4.65465 3
      vertex -0.930923 -0.930923 3
    endloop
  endfacet
  facet normal 0 0 -1
    outer loop
      vertex -0.930923 -0.930923 3
      vertex 0.930923 -4.65465 3
      vertex -0.930923 -4.65465 3
    endloop
  endfacet
  facet normal 0 0 -1
    outer loop
      vertex 0.930923 -0.930923 3
      vertex -0.930923 -0.930923 3
      vertex -0.930923 0.930923 3
    endloop
  endfacet
  facet normal 0 0 -1
    outer loop
      vertex -0.930923 -0.930923 3
      vertex -4.65465 0.930923 3
      vertex -0.930923 0.930923 3
    endloop
  endfacet
  facet normal 0 0 1
    outer loop
      vertex 4.65465 0.930923 4
      vertex 0.930923 0.930923 4
      vertex 4.65465 -0.930923 4
    endloop
  endfacet
  facet normal 0 0 1
    outer loop
      vertex 0.930923 0.930923 4
      vertex 0.930923 -0.930923 4
      vertex 4.65465 -0.930923 4
    endloop
  endfacet
  facet normal -0 0 1
    outer loop
      vertex -0.930923 0.930923 4
      vertex 0.930923 -0.930923 4
      vertex 0.930923 0.930923 4
    endloop
  endfacet
  facet normal 0 0 1
    outer loop
      vertex -0.930923 4.65465 4
      vertex -0.930923 0.930923 4
      vertex 0.930923 0.930923 4
    endloop
  endfacet
  facet normal -0 0 1
    outer loop
      vertex -0.930923 4.65465 4
      vertex 0.930923 0.930923 4
      vertex 0.930923 4.65465 4
    endloop
  endfacet
  facet normal 0 0 1
    outer loop
      vertex -4.65465 0.930923 4
      vertex -4.65465 -0.930923 4
      vertex -0.930923 -0.930923 4
    endloop
  endfacet
  facet normal -0 0 1
    outer loop
      vertex -0.930923 -0.930923 4
      vertex 0.930923 -4.65465 4
      vertex 0.930923 -0.930923 4
    endloop
  endfacet
  facet normal 0 0 1
    outer loop
      vertex -0.930923 -4.65465 4
      vertex 0.930923 -4.65465 4
      vertex -0.930923 -0.930923 4
    endloop
  endfacet
  facet normal 0 0 1
    outer loop
      vertex -0.930923 0.930923 4
      vertex -0.930923 -0.930923 4
      vertex 0.930923 -0.930923 4
    endloop
  endfacet
  facet normal 0 0 1
    outer loop
      vertex -0.930923 0.930923 4
      vertex -4.65465 0.930923 4
      vertex -0.930923 -0.930923 4
    endloop
  endfacet
  facet normal 0 -1 0
    outer loop
      vertex 4.65465 -0.930923 3
      vertex 0.930923 -0.930923 4
      vertex 0.930923 -0.930923 3
    endloop
  endfacet
  facet normal 0 -1 0
    outer loop
      vertex 4.65465 -0.930923 3
      vertex 4.65465 -0.930923 4
      vertex 0.930923 -0.930923 4
    endloop
  endfacet
  facet normal 1 0 0
    outer loop
      vertex 4.65465 0.930923 3
      vertex 4.65465 -0.930923 4
      vertex 4.65465 -0.930923 3
    endloop
  endfacet
  facet normal 1 0 -0
    outer loop
      vertex 4.65465 0.930923 3
      vertex 4.65465 0.930923 4
      vertex 4.65465 -0.930923 4
    endloop
  endfacet
  facet normal 0 1 0
    outer loop
      vertex 0.930923 0.930923 3
      vertex 4.65465 0.930923 4
      vertex 4.65465 0.930923 3
    endloop
  endfacet
  facet normal 0 1 0
    outer loop
      vertex 0.930923 0.930923 3
      vertex 0.930923 0.930923 4
      vertex 4.65465 0.930923 4
    endloop
  endfacet
  facet normal 1 0 0
    outer loop
      vertex 0.930923 4.65465 3
      vertex 0.930923 0.930923 4
      vertex 0.930923 0.930923 3
    endloop
  endfacet
  facet normal 1 0 -0
    outer loop
      vertex 0.930923 4.65465 3
      vertex 0.930923 4.65465 4
      vertex 0.930923 0.930923 4
    endloop
  endfacet
  facet normal 0 1 0
    outer loop
      vertex -0.930923 4.65465 3
      vertex 0.930923 4.65465 4
      vertex 0.930923 4.65465 3
    endloop
  endfacet
  facet normal 0 1 0
    outer loop
      vertex -0.930923 4.65465 3
      vertex -0.930923 4.65465 4
      vertex 0.930923 4.65465 4
    endloop
  endfacet
  facet normal -1 0 0
    outer loop
      vertex -0.930923 0.930923 3
      vertex -0.930923 4.65465 4
      vertex -0.930923 4.65465 3
    endloop
  endfacet
  facet normal -1 0 0
    outer loop
      vertex -0.930923 0.930923 3
      vertex -0.930923 0.930923 4
      vertex -0.930923 4.65465 4
    endloop
  endfacet
  facet normal 0 1 0
    outer loop
      vertex -4.65465 0.930923 3
      vertex -0.930923 0.930923 4
      vertex -0.930923 0.930923 3
    endloop
  endfacet
  facet normal 0 1 0
    outer loop
      vertex -4.65465 0.930923 3
      vertex -4.65465 0.930923 4
      vertex -0.930923 0.930923 4
    endloop
  endfacet
  facet normal -1 0 0
    outer loop
      vertex -4.65465 -0.930923 3
      vertex -4.65465 0.930923 4
      vertex -4.65465 0.930923 3
    endloop
  endfacet
  facet normal -1 0 0
    outer loop
      vertex -4.65465 -0.930923 3
      vertex -4.65465 -0.930923 4
      vertex -4.65465 0.930923 4
    endloop
  endfacet
  facet normal 0 -1 0
    outer loop
      vertex -0.930923 -0.930923 3
      vertex -4.65465 -0.930923 4
      vertex -4.65465 -0.930923 3
    endloop
  endfacet
  facet normal 0 -1 0
    outer loop
      vertex -0.930923 -0.930923 3
      vertex -0.930923 -0.930923 4
      vertex -4.65465 -0.930923 4
    endloop
  endfacet
  facet normal -1 0 0
    outer loop
      vertex -0.930923 -4.65465 3
      vertex -0.930923 -0.930923 4
      vertex -0.930923 -0.930923 3
    endloop
  endfacet
  facet normal -1 0 0
    outer loop
      vertex -0.930923 -4.65465 3
      vertex -0.930923 -4.65465 4
      vertex -0.930923 -0.930923 4
    endloop
  endfacet
  facet normal 0 -1 0
    outer loop
      vertex 0.930923 -4.65465 3
      vertex -0.930923 -4.65465 4
      vertex -0.930923 -4.65465 3
    endloop
  endfacet
  facet normal 0 -1 0
    outer loop
      vertex 0.930923 -4.65465 3
      vertex 0.930923 -4.65465 4
      vertex -0.930923 -4.65465 4
    endloop
  endfacet
  facet normal 1 0 0
    outer loop
      vertex 0.930923 -0.930923 3
      vertex 0.930923 -4.65465 4
      vertex 0.930923 -4.65465 3
    endloop
  endfacet
  facet normal 1 0 -0
    outer loop
      vertex 0.930923 -0.930923 3
      vertex 0.930923 -0.930923 4
      vertex 0.930923 -4.65465 4
    endloop
  endfacet
endsolid OpenSCAD_Model
