solid OpenSCAD_Model
  facet normal -0 0 -1
    outer loop
      vertex 10.5005 7.14036 20
      vertex -7.14036 -10.5005 20
      vertex 7.14036 10.5005 20
    endloop
  endfacet
  facet normal 0 0 -1
    outer loop
      vertex -7.14036 -10.5005 20
      vertex -10.5005 -7.14036 20
      vertex 7.14036 10.5005 20
    endloop
  endfacet
  facet normal 0 0 1
    outer loop
      vertex 7.14036 10.5005 21.2
      vertex -7.14036 -10.5005 21.2
      vertex 10.5005 7.14036 21.2
    endloop
  endfacet
  facet normal 0 0 1
    outer loop
      vertex 7.14036 10.5005 21.2
      vertex -10.5005 -7.14036 21.2
      vertex -7.14036 -10.5005 21.2
    endloop
  endfacet
  facet normal 0.707107 -0.707107 0
    outer loop
      vertex 10.5005 7.14036 20
      vertex -7.14036 -10.5005 21.2
      vertex -7.14036 -10.5005 20
    endloop
  endfacet
  facet normal 0.707107 -0.707107 0
    outer loop
      vertex 10.5005 7.14036 20
      vertex 10.5005 7.14036 21.2
      vertex -7.14036 -10.5005 21.2
    endloop
  endfacet
  facet normal 0.707107 0.707107 0
    outer loop
      vertex 7.14036 10.5005 20
      vertex 10.5005 7.14036 21.2
      vertex 10.5005 7.14036 20
    endloop
  endfacet
  facet normal 0.707107 0.707107 -0
    outer loop
      vertex 7.14036 10.5005 20
      vertex 7.14036 10.5005 21.2
      vertex 10.5005 7.14036 21.2
    endloop
  endfacet
  facet normal -0.707107 0.707107 0
    outer loop
      vertex -10.5005 -7.14036 20
      vertex 7.14036 10.5005 21.2
      vertex 7.14036 10.5005 20
    endloop
  endfacet
  facet normal -0.707107 0.707107 0
    outer loop
      vertex -10.5005 -7.14036 20
      vertex -10.5005 -7.14036 21.2
      vertex 7.14036 10.5005 21.2
    endloop
  endfacet
  facet normal -0.707107 -0.707107 0
    outer loop
      vertex -7.14036 -10.5005 20
      vertex -10.5005 -7.14036 21.2
      vertex -10.5005 -7.14036 20
    endloop
  endfacet
  facet normal -0.707107 -0.707107 0
    outer loop
      vertex -7.14036 -10.5005 20
      vertex -7.14036 -10.5005 21.2
      vertex -10.5005 -7.14036 21.2
    endloop
  endfacet
endsolid OpenSCAD_Model
