solid OpenSCAD_Model
  facet normal 0 0 -1
    outer loop
      vertex 11.88 -2.37599 25
      vertex 2.37599 2.37599 25
      vertex 11.88 2.37599 25
    endloop
  endfacet
  facet normal 0 0 -1
    outer loop
      vertex 11.88 -2.37599 25
      vertex 2.37599 -2.37599 25
      vertex 2.37599 2.37599 25
    endloop
  endfacet
  facet normal -0 -0 -1
    outer loop
      vertex 2.37599 2.37599 25
      vertex 2.37599 -2.37599 25
      vertex -2.37599 2.37599 25
    endloop
  endfacet
  facet normal 0 0 -1
    outer loop
      vertex 2.37599 2.37599 25
      vertex -2.37599 2.37599 25
      vertex -2.37599 11.88 25
    endloop
  endfacet
  facet normal -0 -0 -1
    outer loop
      vertex 2.37599 11.88 25
      vertex 2.37599 2.37599 25
      vertex -2.37599 11.88 25
    endloop
  endfacet
  facet normal 0 0 -1
    outer loop
      vertex -2.37599 -2.37599 25
      vertex -11.88 -2.37599 25
      vertex -11.88 2.37599 25
    endloop
  endfacet
  facet normal -0 -0 -1
    outer loop
      vertex 2.37599 -2.37599 25
      vertex 2.37599 -11.88 25
      vertex -2.37599 -2.37599 25
    endloop
  endfacet
  facet normal 0 0 -1
    outer loop
      vertex -2.37599 -2.37599 25
      vertex 2.37599 -11.88 25
      vertex -2.37599 -11.88 25
    endloop
  endfacet
  facet normal 0 0 -1
    outer loop
      vertex 2.37599 -2.37599 25
      vertex -2.37599 -2.37599 25
      vertex -2.37599 2.37599 25
    endloop
  endfacet
  facet normal 0 0 -1
    outer loop
      vertex -2.37599 -2.37599 25
      vertex -11.88 2.37599 25
      vertex -2.37599 2.37599 25
    endloop
  endfacet
  facet normal 0 0 1
    outer loop
      vertex 11.88 2.37599 26.2
      vertex 2.37599 2.37599 26.2
      vertex 11.88 -2.37599 26.2
    endloop
  endfacet
  facet normal 0 0 1
    outer loop
      vertex 2.37599 2.37599 26.2
      vertex 2.37599 -2.37599 26.2
      vertex 11.88 -2.37599 26.2
    endloop
  endfacet
  facet normal -0 0 1
    outer loop
      vertex -2.37599 2.37599 26.2
      vertex 2.37599 -2.37599 26.2
      vertex 2.37599 2.37599 26.2
    endloop
  endfacet
  facet normal 0 0 1
    outer loop
      vertex -2.37599 11.88 26.2
      vertex -2.37599 2.37599 26.2
      vertex 2.37599 2.37599 26.2
    endloop
  endfacet
  facet normal -0 0 1
    outer loop
      vertex -2.37599 11.88 26.2
      vertex 2.37599 2.37599 26.2
      vertex 2.37599 11.88 26.2
    endloop
  endfacet
  facet normal 0 0 1
    outer loop
      vertex -11.88 2.37599 26.2
      vertex -11.88 -2.37599 26.2
      vertex -2.37599 -2.37599 26.2
    endloop
  endfacet
  facet normal -0 0 1
    outer loop
      vertex -2.37599 -2.37599 26.2
      vertex 2.37599 -11.88 26.2
      vertex 2.37599 -2.37599 26.2
    endloop
  endfacet
  facet normal 0 0 1
    outer loop
      vertex -2.37599 -11.88 26.2
      vertex 2.37599 -11.88 26.2
      vertex -2.37599 -2.37599 26.2
    endloop
  endfacet
  facet normal 0 0 1
    outer loop
      vertex -2.37599 2.37599 26.2
      vertex -2.37599 -2.37599 26.2
      vertex 2.37599 -2.37599 26.2
    endloop
  endfacet
  facet normal 0 0 1
    outer loop
      vertex -2.37599 2.37599 26.2
      vertex -11.88 2.37599 26.2
      vertex -2.37599 -2.37599 26.2
    endloop
  endfacet
  facet normal 0 -1 0
    outer loop
      vertex 11.88 -2.37599 25
      vertex 2.37599 -2.37599 26.2
      vertex 2.37599 -2.37599 25
    endloop
  endfacet
  facet normal 0 -1 0
    outer loop
      vertex 11.88 -2.37599 25
      vertex 11.88 -2.37599 26.2
      vertex 2.37599 -2.37599 26.2
    endloop
  endfacet
  facet normal 1 0 0
    outer loop
      vertex 11.88 2.37599 25
      vertex 11.88 -2.37599 26.2
      vertex 11.88 -2.37599 25
    endloop
  endfacet
  facet normal 1 0 -0
    outer loop
      vertex 11.88 2.37599 25
      vertex 11.88 2.37599 26.2
      vertex 11.88 -2.37599 26.2
    endloop
  endfacet
  facet normal 0 1 0
    outer loop
      vertex 2.37599 2.37599 25
      vertex 11.88 2.37599 26.2
      vertex 11.88 2.37599 25
    endloop
  endfacet
  facet normal 0 1 0
    outer loop
      vertex 2.37599 2.37599 25
      vertex 2.37599 2.37599 26.2
      vertex 11.88 2.37599 26.2
    endloop
  endfacet
  facet normal 1 0 0
    outer loop
      vertex 2.37599 11.88 25
      vertex 2.37599 2.37599 26.2
      vertex 2.37599 2.37599 25
    endloop
  endfacet
  facet normal 1 0 -0
    outer loop
      vertex 2.37599 11.88 25
      vertex 2.37599 11.88 26.2
      vertex 2.37599 2.37599 26.2
    endloop
  endfacet
  facet normal 0 1 0
    outer loop
      vertex -2.37599 11.88 25
      vertex 2.37599 11.88 26.2
      vertex 2.37599 11.88 25
    endloop
  endfacet
  facet normal 0 1 0
    outer loop
      vertex -2.37599 11.88 25
      vertex -2.37599 11.88 26.2
      vertex 2.37599 11.88 26.2
    endloop
  endfacet
  facet normal -1 0 0
    outer loop
      vertex -2.37599 2.37599 25
      vertex -2.37599 11.88 26.2
      vertex -2.37599 11.88 25
    endloop
  endfacet
  facet normal -1 0 0
    outer loop
      vertex -2.37599 2.37599 25
      vertex -2.37599 2.37599 26.2
      vertex -2.37599 11.88 26.2
    endloop
  endfacet
  facet normal 0 1 0
    outer loop
      vertex -11.88 2.37599 25
      vertex -2.37599 2.37599 26.2
      vertex -2.37599 2.37599 25
    endloop
  endfacet
  facet normal 0 1 0
    outer loop
      vertex -11.88 2.37599 25
      vertex -11.88 2.37599 26.2
      vertex -2.37599 2.37599 26.2
    endloop
  endfacet
  facet normal -1 0 0
    outer loop
      vertex -11.88 -2.37599 25
      vertex -11.88 2.37599 26.2
      vertex -11.88 2.37599 25
    endloop
  endfacet
  facet normal -1 0 0
    outer loop
      vertex -11.88 -2.37599 25
      vertex -11.88 -2.37599 26.2
      vertex -11.88 2.37599 26.2
    endloop
  endfacet
  facet normal 0 -1 0
    outer loop
      vertex -2.37599 -2.37599 25
      vertex -11.88 -2.37599 26.2
      vertex -11.88 -2.37599 25
    endloop
  endfacet
  facet normal 0 -1 0
    outer loop
      vertex -2.37599 -2.37599 25
      vertex -2.37599 -2.37599 26.2
      vertex -11.88 -2.37599 26.2
    endloop
  endfacet
  facet normal -1 0 0
    outer loop
      vertex -2.37599 -11.88 25
      vertex -2.37599 -2.37599 26.2
      vertex -2.37599 -2.37599 25
    endloop
  endfacet
  facet normal -1 0 0
    outer loop
      vertex -2.37599 -11.88 25
      vertex -2.37599 -11.88 26.2
      vertex -2.37599 -2.37599 26.2
    endloop
  endfacet
  facet normal 0 -1 0
    outer loop
      vertex 2.37599 -11.88 25
      vertex -2.37599 -11.88 26.2
      vertex -2.37599 -11.88 25
    endloop
  endfacet
  facet normal 0 -1 0
    outer loop
      vertex 2.37599 -11.88 25
      vertex 2.37599 -11.88 26.2
      vertex -2.37599 -11.88 26.2
    endloop
  endfacet
  facet normal 1 0 0
    outer loop
      vertex 2.37599 -2.37599 25
      vertex 2.37599 -11.88 26.2
      vertex 2.37599 -11.88 25
    endloop
  endfacet
  facet normal 1 0 -0
    outer loop
      vertex 2.37599 -2.37599 25
      vertex 2.37599 -2.37599 26.2
      vertex 2.37599 -11.88 26.2
    endloop
  endfacet
endsolid OpenSCAD_Model
