solid OpenSCAD_Model
  facet normal 0 0 -1
    outer loop
      vertex -2.376 -4.752 18
      vertex 7.128 -4.752 18
      vertex 7.128 -9.504 18
    endloop
  endfacet
  facet normal 0 -0 -1
    outer loop
      vertex -2.376 -4.752 18
      vertex 7.128 -9.504 18
      vertex -7.128 -9.504 18
    endloop
  endfacet
  facet normal 0 0 -1
    outer loop
      vertex -2.376 -4.752 18
      vertex -7.128 9.504 18
      vertex -2.376 9.504 18
    endloop
  endfacet
  facet normal -0 0 -1
    outer loop
      vertex -2.376 -4.752 18
      vertex -7.128 -9.504 18
      vertex -7.128 9.504 18
    endloop
  endfacet
  facet normal 0 -0 1
    outer loop
      vertex 7.128 -9.504 19.2
      vertex 7.128 -4.752 19.2
      vertex -2.376 -4.752 19.2
    endloop
  endfacet
  facet normal 0 0 1
    outer loop
      vertex -7.128 -9.504 19.2
      vertex 7.128 -9.504 19.2
      vertex -2.376 -4.752 19.2
    endloop
  endfacet
  facet normal 0 0 1
    outer loop
      vertex -2.376 9.504 19.2
      vertex -7.128 9.504 19.2
      vertex -2.376 -4.752 19.2
    endloop
  endfacet
  facet normal 0 0 1
    outer loop
      vertex -7.128 9.504 19.2
      vertex -7.128 -9.504 19.2
      vertex -2.376 -4.752 19.2
    endloop
  endfacet
  facet normal 0 1 0
    outer loop
      vertex -2.376 -4.752 18
      vertex 7.128 -4.752 19.2
      vertex 7.128 -4.752 18
    endloop
  endfacet
  facet normal 0 1 0
    outer loop
      vertex -2.376 -4.752 18
      vertex -2.376 -4.752 19.2
      vertex 7.128 -4.752 19.2
    endloop
  endfacet
  facet normal 1 0 0
    outer loop
      vertex -2.376 9.504 18
      vertex -2.376 -4.752 19.2
      vertex -2.376 -4.752 18
    endloop
  endfacet
  facet normal 1 0 -0
    outer loop
      vertex -2.376 9.504 18
      vertex -2.376 9.504 19.2
      vertex -2.376 -4.752 19.2
    endloop
  endfacet
  facet normal 0 1 0
    outer loop
      vertex -7.128 9.504 18
      vertex -2.376 9.504 19.2
      vertex -2.376 9.504 18
    endloop
  endfacet
  facet normal 0 1 0
    outer loop
      vertex -7.128 9.504 18
      vertex -7.128 9.504 19.2
      vertex -2.376 9.504 19.2
    endloop
  endfacet
  facet normal -1 0 0
    outer loop
      vertex -7.128 -9.504 18
      vertex -7.128 9.504 19.2
      vertex -7.128 9.504 18
    endloop
  endfacet
  facet normal -1 0 0
    outer loop
      vertex -7.128 -9.504 18
      vertex -7.128 -9.504 19.2
      vertex -7.128 9.504 19.2
    endloop
  endfacet
  facet normal 0 -1 0
    outer loop
      vertex 7.128 -9.504 18
      vertex -7.128 -9.504 19.2
      vertex -7.128 -9.504 18
    endloop
  endfacet
  facet normal 0 -1 0
    outer loop
      vertex 7.128 -9.504 18
      vertex 7.128 -9.504 19.2
      vertex -7.128 -9.504 19.2
    endloop
  endfacet
  facet normal 1 0 0
    outer loop
      vertex 7.128 -4.752 18
      vertex 7.128 -9.504 19.2
      vertex 7.128 -9.504 18
    endloop
  endfacet
  facet normal 1 0 -0
    outer loop
      vertex 7.128 -4.752 18
      vertex 7.128 -4.752 19.2
      vertex 7.128 -9.504 19.2
    endloop
  endfacet
endsolid OpenSCAD_Model
