solid OpenSCAD_Model
  facet normal 0 0 -1
    outer loop
      vertex -10.098 10.098 18
      vertex 5.34599 5.34599 18
      vertex -5.34599 5.34599 18
    endloop
  endfacet
  facet normal 0 -0 -1
    outer loop
      vertex 10.098 10.098 18
      vertex 10.098 -10.098 18
      vertex 5.34599 5.34599 18
    endloop
  endfacet
  facet normal 0 0 -1
    outer loop
      vertex 10.098 -10.098 18
      vertex 5.34599 -5.34599 18
      vertex 5.34599 5.34599 18
    endloop
  endfacet
  facet normal 0 -0 -1
    outer loop
      vertex 5.34599 -5.34599 18
      vertex 10.098 -10.098 18
      vertex -10.098 -10.098 18
    endloop
  endfacet
  facet normal 0 0 -1
    outer loop
      vertex -10.098 10.098 18
      vertex -5.34599 -5.34599 18
      vertex -10.098 -10.098 18
    endloop
  endfacet
  facet normal 0 -0 -1
    outer loop
      vertex -5.34599 -5.34599 18
      vertex 5.34599 -5.34599 18
      vertex -10.098 -10.098 18
    endloop
  endfacet
  facet normal 0 0 -1
    outer loop
      vertex -10.098 10.098 18
      vertex -5.34599 5.34599 18
      vertex -5.34599 -5.34599 18
    endloop
  endfacet
  facet normal -0 0 -1
    outer loop
      vertex 10.098 10.098 18
      vertex 5.34599 5.34599 18
      vertex -10.098 10.098 18
    endloop
  endfacet
  facet normal 0 -0 1
    outer loop
      vertex -5.34599 5.34599 19.2
      vertex 5.34599 5.34599 19.2
      vertex -10.098 10.098 19.2
    endloop
  endfacet
  facet normal -0 0 1
    outer loop
      vertex 5.34599 5.34599 19.2
      vertex 10.098 -10.098 19.2
      vertex 10.098 10.098 19.2
    endloop
  endfacet
  facet normal 0 0 1
    outer loop
      vertex 5.34599 5.34599 19.2
      vertex 5.34599 -5.34599 19.2
      vertex 10.098 -10.098 19.2
    endloop
  endfacet
  facet normal 0 0 1
    outer loop
      vertex -10.098 -10.098 19.2
      vertex 10.098 -10.098 19.2
      vertex 5.34599 -5.34599 19.2
    endloop
  endfacet
  facet normal 0 0 1
    outer loop
      vertex -10.098 -10.098 19.2
      vertex -5.34599 -5.34599 19.2
      vertex -10.098 10.098 19.2
    endloop
  endfacet
  facet normal 0 0 1
    outer loop
      vertex -10.098 -10.098 19.2
      vertex 5.34599 -5.34599 19.2
      vertex -5.34599 -5.34599 19.2
    endloop
  endfacet
  facet normal 0 -0 1
    outer loop
      vertex -5.34599 -5.34599 19.2
      vertex -5.34599 5.34599 19.2
      vertex -10.098 10.098 19.2
    endloop
  endfacet
  facet normal -0 0 1
    outer loop
      vertex -10.098 10.098 19.2
      vertex 5.34599 5.34599 19.2
      vertex 10.098 10.098 19.2
    endloop
  endfacet
  facet normal 0 1 0
    outer loop
      vertex -10.098 10.098 18
      vertex 10.098 10.098 19.2
      vertex 10.098 10.098 18
    endloop
  endfacet
  facet normal 0 1 0
    outer loop
      vertex -10.098 10.098 18
      vertex -10.098 10.098 19.2
      vertex 10.098 10.098 19.2
    endloop
  endfacet
  facet normal -1 0 0
    outer loop
      vertex -10.098 -10.098 18
      vertex -10.098 10.098 19.2
      vertex -10.098 10.098 18
    endloop
  endfacet
  facet normal -1 0 0
    outer loop
      vertex -10.098 -10.098 18
      vertex -10.098 -10.098 19.2
      vertex -10.098 10.098 19.2
    endloop
  endfacet
  facet normal 0 -1 0
    outer loop
      vertex 10.098 -10.098 18
      vertex -10.098 -10.098 19.2
      vertex -10.098 -10.098 18
    endloop
  endfacet
  facet normal 0 -1 0
    outer loop
      vertex 10.098 -10.098 18
      vertex 10.098 -10.098 19.2
      vertex -10.098 -10.098 19.2
    endloop
  endfacet
  facet normal 1 0 0
    outer loop
      vertex 10.098 10.098 18
      vertex 10.098 -10.098 19.2
      vertex 10.098 -10.098 18
    endloop
  endfacet
  facet normal 1 0 -0
    outer loop
      vertex 10.098 10.098 18
      vertex 10.098 10.098 19.2
      vertex 10.098 -10.098 19.2
    endloop
  endfacet
  facet normal 1 0 -0
    outer loop
      vertex -5.34599 5.34599 18
      vertex -5.34599 5.34599 19.2
      vertex -5.34599 -5.34599 18
    endloop
  endfacet
  facet normal 1 -0 0
    outer loop
      vertex -5.34599 -5.34599 19.2
      vertex -5.34599 -5.34599 18
      vertex -5.34599 5.34599 19.2
    endloop
  endfacet
  facet normal 0 -1 0
    outer loop
      vertex 5.34599 5.34599 18
      vertex 5.34599 5.34599 19.2
      vertex -5.34599 5.34599 18
    endloop
  endfacet
  facet normal 0 -1 0
    outer loop
      vertex -5.34599 5.34599 19.2
      vertex -5.34599 5.34599 18
      vertex 5.34599 5.34599 19.2
    endloop
  endfacet
  facet normal -1 0 0
    outer loop
      vertex 5.34599 -5.34599 18
      vertex 5.34599 -5.34599 19.2
      vertex 5.34599 5.34599 18
    endloop
  endfacet
  facet normal -1 -0 -0
    outer loop
      vertex 5.34599 5.34599 19.2
      vertex 5.34599 5.34599 18
      vertex 5.34599 -5.34599 19.2
    endloop
  endfacet
  facet normal 0 1 0
    outer loop
      vertex -5.34599 -5.34599 18
      vertex -5.34599 -5.34599 19.2
      vertex 5.34599 -5.34599 18
    endloop
  endfacet
  facet normal 0 1 0
    outer loop
      vertex 5.34599 -5.34599 19.2
      vertex 5.34599 -5.34599 18
      vertex -5.34599 -5.34599 19.2
    endloop
  endfacet
endsolid OpenSCAD_Model
